<?xml version="1.0" standalone="no"?>
<!DOCTYPE svg PUBLIC "-//W3C//DTD SVG 20010904//EN"
 "http://www.w3.org/TR/2001/REC-SVG-20010904/DTD/svg10.dtd">
<svg version="1.0" xmlns="http://www.w3.org/2000/svg"
 width="512.000000pt" height="512.000000pt" viewBox="0 0 512.000000 512.000000"
 preserveAspectRatio="xMidYMid meet">

<g transform="translate(0.000000,512.000000) scale(0.100000,-0.100000)"
fill="#000000" stroke="none">
<path d="M2370 5114 c-19 -2 -78 -9 -130 -15 -791 -90 -1522 -586 -1924 -1305
-146 -262 -252 -587 -297 -914 -20 -143 -18 -527 4 -670 89 -580 328 -1058
728 -1459 717 -717 1787 -944 2731 -580 116 45 153 102 114 177 -34 65 -83 66
-254 3 -403 -147 -850 -174 -1292 -79 -325 69 -682 241 -955 458 -466 372
-779 927 -860 1526 -22 157 -22 450 -1 609 34 251 110 499 223 726 236 477
603 843 1078 1074 339 166 652 238 1030 237 374 -1 687 -73 1020 -236 724
-355 1209 -1039 1305 -1841 18 -143 15 -416 -5 -568 -27 -210 -96 -460 -174
-632 -39 -86 -44 -110 -27 -149 15 -37 59 -66 98 -66 52 0 83 33 130 142 198
452 256 979 163 1484 -93 501 -339 965 -706 1333 -398 397 -890 644 -1451 727
-98 14 -474 27 -548 18z"/>
<path d="M2491 4563 c-16 -16 -149 -226 -295 -469 l-267 -440 -531 -12 c-335
-8 -539 -17 -552 -24 -36 -18 -56 -51 -56 -92 0 -33 42 -116 250 -496 138
-251 250 -462 250 -468 0 -7 -112 -218 -250 -470 -264 -484 -271 -501 -235
-556 9 -13 28 -29 43 -35 24 -9 708 -31 979 -31 l98 0 275 -451 c151 -248 286
-460 299 -470 36 -29 94 -25 130 8 16 16 149 226 295 469 l267 440 531 12
c339 8 538 16 552 23 36 19 56 52 56 93 0 33 -42 116 -250 496 -137 251 -250
462 -250 468 0 7 113 218 250 470 264 484 271 501 235 556 -9 13 -28 29 -43
35 -24 9 -702 31 -981 31 l-96 0 -275 451 c-151 248 -286 460 -299 470 -36 29
-94 25 -130 -8z m255 -588 c305 -502 311 -512 341 -523 17 -7 210 -16 493 -22
256 -6 465 -12 466 -13 1 -1 -84 -157 -188 -347 -104 -190 -207 -381 -229
-426 -39 -79 -40 -82 -26 -120 8 -21 111 -214 229 -429 119 -214 214 -391 214
-392 -1 -1 -213 -8 -472 -14 -354 -9 -476 -15 -495 -25 -19 -10 -97 -129 -270
-414 -134 -220 -247 -399 -251 -398 -4 2 -87 134 -184 293 -305 502 -311 512
-341 523 -17 7 -210 16 -493 22 -256 6 -465 12 -466 13 -1 1 84 157 188 347
104 190 207 381 229 426 39 79 40 82 26 120 -8 21 -111 215 -229 429 -119 215
-214 391 -214 392 1 1 211 8 467 14 327 8 473 15 495 24 26 11 70 77 275 414
134 221 247 400 251 399 4 -2 87 -133 184 -293z"/>
<path d="M2497 3860 c-32 -25 -51 -81 -43 -125 8 -40 47 -81 86 -90 60 -13
130 48 130 114 0 34 -26 87 -51 105 -32 22 -91 20 -122 -4z"/>
<path d="M2334 3490 c-40 -16 -64 -59 -64 -112 0 -44 4 -54 35 -85 32 -32 39
-35 78 -30 61 8 97 51 97 115 0 54 -18 85 -60 107 -32 17 -55 18 -86 5z"/>
<path d="M2693 3481 c-41 -26 -53 -49 -53 -105 0 -62 37 -105 97 -113 39 -5
46 -2 78 30 31 31 35 41 35 86 0 41 -5 56 -27 81 -37 40 -86 48 -130 21z"/>
<path d="M1441 3244 c-58 -48 -47 -132 22 -174 66 -41 144 -16 167 54 33 102
-106 190 -189 120z"/>
<path d="M3542 3250 c-45 -28 -67 -80 -52 -126 32 -96 166 -98 215 -3 51 97
-65 189 -163 129z"/>
<path d="M1859 3211 c-71 -71 -10 -191 97 -191 84 0 134 99 83 164 -49 62
-132 75 -180 27z"/>
<path d="M3124 3221 c-62 -38 -80 -92 -50 -150 37 -70 163 -64 201 10 55 105
-50 202 -151 140z"/>
<path d="M1674 2886 c-50 -50 -48 -96 6 -148 35 -33 47 -38 86 -38 64 0 104
40 104 102 0 49 -19 78 -67 102 -52 26 -90 21 -129 -18z"/>
<path d="M3315 2903 c-46 -24 -65 -53 -65 -101 0 -62 40 -102 104 -102 39 0
51 5 86 38 54 52 56 98 6 148 -39 39 -80 44 -131 17z"/>
<path d="M1680 2382 c-54 -52 -56 -98 -6 -148 39 -39 77 -44 129 -18 48 24 67
53 67 102 0 62 -40 102 -104 102 -39 0 -51 -5 -86 -38z"/>
<path d="M3279 2391 c-23 -24 -29 -38 -29 -73 0 -49 19 -78 67 -102 52 -26 90
-21 129 18 50 50 48 96 -6 148 -35 33 -47 38 -86 38 -37 0 -51 -6 -75 -29z"/>
<path d="M1895 2084 c-45 -23 -65 -53 -65 -102 0 -62 40 -102 104 -102 39 0
51 5 86 38 30 29 40 47 40 70 0 90 -83 139 -165 96z"/>
<path d="M3111 2086 c-31 -17 -50 -53 -51 -95 0 -27 8 -42 40 -73 35 -33 47
-38 86 -38 123 0 145 166 29 210 -36 14 -75 12 -104 -4z"/>
<path d="M1463 2050 c-33 -19 -63 -66 -63 -95 0 -31 31 -82 56 -94 93 -42 204
44 174 135 -23 70 -101 95 -167 54z"/>
<path d="M3527 2050 c-14 -11 -31 -36 -37 -54 -40 -122 160 -206 215 -91 20
43 19 63 -5 102 -37 61 -123 82 -173 43z"/>
<path d="M2304 1826 c-30 -30 -34 -40 -34 -84 0 -90 76 -145 148 -108 45 23
62 54 62 109 0 42 -5 54 -34 83 -26 26 -42 34 -71 34 -29 0 -45 -8 -71 -34z"/>
<path d="M2674 1826 c-29 -29 -34 -41 -34 -83 0 -55 17 -86 62 -109 72 -37
148 18 148 108 0 44 -4 54 -34 84 -26 26 -42 34 -71 34 -29 0 -45 -8 -71 -34z"/>
<path d="M2513 1464 c-33 -16 -63 -66 -63 -103 0 -34 26 -87 51 -105 30 -21
88 -21 118 0 25 18 51 71 51 105 0 38 -31 87 -65 103 -41 20 -52 20 -92 0z"/>
<path d="M4325 1300 c-220 -26 -409 -159 -506 -355 -51 -105 -69 -180 -69
-290 0 -110 20 -198 65 -290 132 -266 430 -411 720 -350 119 25 228 86 321
179 87 87 119 138 160 250 35 97 44 242 20 350 -72 323 -383 544 -711 506z
m258 -252 c271 -129 338 -471 135 -693 -166 -182 -470 -182 -636 0 -226 247
-116 629 208 722 27 8 80 11 132 9 75 -3 98 -9 161 -38z"/>
<path d="M4344 911 c-36 -22 -59 -78 -49 -113 12 -37 46 -67 89 -79 54 -14 72
-32 80 -79 8 -51 53 -90 105 -90 46 0 79 23 98 67 31 75 -26 208 -114 263 -83
53 -156 63 -209 31z"/>
</g>
</svg>
